<svg xmlns="http://www.w3.org/2000/svg"><symbol id="error-icon" viewBox="0 0 54.6 54.6"><path fill="#c33333" d="M52.9 4.6a4.6 4.6 0 0 0-4-2.3H5.7a4.7 4.7 0 0 0-4.1 6.9l21.6 40.6a4.6 4.6 0 0 0 4.1 2.5 4.6 4.6 0 0 0 4.1-2.5L53 9.2a4.6 4.6 0 0 0-.1-4.6zm-2.6 3.2L28.8 48.4a1.6 1.6 0 0 1-1.5.9 1.6 1.6 0 0 1-1.5-.9L4.3 7.8a1.7 1.7 0 0 1 1.4-2.4h43.2a1.7 1.7 0 0 1 1.5 2.4z"/><path fill="#c33333" d="M27.2 31.3a3.9 3.9 0 1 0 0 7.8 3.9 3.9 0 1 0 0-7.8zm.1-22.4c-3.5 0-5.4 1.2-4.5 5.7l2.6 15h3.8l2.6-15c.9-4.5-1-5.7-4.5-5.7z"/></symbol><symbol id="heart-icon" viewBox="0 0 102.8 109.7"><path fill="#29abe2" d="M84.3 22.5H84c-8.3-2.8-19.7-1.7-27 3.4.9-.7-8.5-11.6-9.1-12.2-7.6-7.5-18.1-11.5-28.8-9.9A16.4 16.4 0 0 0 10 8c-5.6 5.4-5.2 15.3-4.7 22.6a90.6 90.6 0 0 0 5.6 25.5c6.1 16.6 15.7 31.7 26.1 46l.9 1.2a120.3 120.3 0 0 0 36.9-27.1A121.3 121.3 0 0 0 89 57.5c3.7-6.1 9-13.1 8.1-20.6s-6.7-12.2-12.8-14.4z"/></symbol><symbol id="logo" viewBox="0 0 269 268"><path fill="#29abe2" d="M236.4 175.4h-.4c-8.9-3-21.1-1.9-28.9 3.6 1-.7-9.1-12.4-9.8-13.1-8.1-7.9-19.3-12.3-30.7-10.6a17.5 17.5 0 0 0-9.7 4.5c-6.1 5.9-5.6 16.5-5.2 24.3a97.2 97.2 0 0 0 6 27.4c6.5 17.8 16.8 34 27.9 49.3l1 1.3a130 130 0 0 0 54.7-49.2c4-6.5 9.6-14 8.7-22.1s-7-13.1-13.6-15.4z"/><path fill="#29abe2" d="M211.9 132.1h-.1l-1.8.7c-2.5.8-24.9 6.5-24.9 7.7 11.5 3.5 21.2 9.3 26.3 20.9-.2-.4 11.8-3.6 13-3.8a32 32 0 0 1 15.5 1.3 31.6 31.6 0 0 1 16.8 13.7c-.4-.7 2.4-6.6 2.6-7.7a93.9 93.9 0 0 0 1.8-9.3 134.9 134.9 0 0 0 1.6-20.1A129.7 129.7 0 0 0 219.4 38a128.4 128.4 0 0 0-84.9-32C63.8 6 6.5 63.4 6.5 134.2a129.1 129.1 0 0 0 44.2 96.9 29.2 29.2 0 0 0 5.2 4.1c-.5-11-2.7-21.6-2.3-32.7a145.4 145.4 0 0 1 2.1-19.2c.9-5.3 4.5-12.7 3.2-18.1a9.9 9.9 0 0 0-4.4 4.8c1.1-2.4.5-7.5 1-10.3a112.1 112.1 0 0 1 2.7-11.8 194.3 194.3 0 0 1 8.1-22.5q3.7-8.8 8.1-17.4c1-2 3.4-4.9 3.8-7.2 1.3-8.2 0-18.1 0-26.6s-.7-17.7-.7-26.5c0-4.9 1.3-6.6 5.5-9.2.9 1.2 6.2 11.5 6.3 11.5s4.3-3.1 5.6-2.1a3.5 3.5 0 0 1 1 1.9c1 4 2 7.9 3.1 11.9.2.9 1.6 8.7 2.5 8.9l18 5.4c5.4 1.6 11 2.9 16.2 5.3s8.6 5.8 12.7 9.2l71.5 13.7c4.1.8 2.8 10.2 2.1 12.6-1.5 4.9-4.7 9.4-7.9 13.2a9.1 9.1 0 0 1-2.2 2.1z"/></symbol></svg>