<svg xmlns="http://www.w3.org/2000/svg"><symbol id="heart-icon" viewBox="0 0 102.8 109.7"><path fill="#29abe2" d="M84.3 22.5H84c-8.3-2.8-19.7-1.7-27 3.4.9-.7-8.5-11.6-9.1-12.2-7.6-7.5-18.1-11.5-28.8-9.9A16.4 16.4 0 0 0 10 8c-5.6 5.4-5.2 15.3-4.7 22.6a90.6 90.6 0 0 0 5.6 25.5c6.1 16.6 15.7 31.7 26.1 46l.9 1.2a120.3 120.3 0 0 0 36.9-27.1A121.3 121.3 0 0 0 89 57.5c3.7-6.1 9-13.1 8.1-20.6s-6.7-12.2-12.8-14.4z"/></symbol><symbol id="error-icon" viewBox="0 0 54.6 54.6"><path fill="#c33333" d="M52.9 4.6a4.6 4.6 0 0 0-4-2.3H5.7a4.7 4.7 0 0 0-4.1 6.9l21.6 40.6a4.6 4.6 0 0 0 4.1 2.5 4.6 4.6 0 0 0 4.1-2.5L53 9.2a4.6 4.6 0 0 0-.1-4.6zm-2.6 3.2L28.8 48.4a1.6 1.6 0 0 1-1.5.9 1.6 1.6 0 0 1-1.5-.9L4.3 7.8a1.7 1.7 0 0 1 1.4-2.4h43.2a1.7 1.7 0 0 1 1.5 2.4z"/><path fill="#c33333" d="M27.2 31.3a3.9 3.9 0 1 0 0 7.8 3.9 3.9 0 1 0 0-7.8zm.1-22.4c-3.5 0-5.4 1.2-4.5 5.7l2.6 15h3.8l2.6-15c.9-4.5-1-5.7-4.5-5.7z"/></symbol><symbol id="logo" viewBox="0 0 269 268"><path fill="#29abe2" d="M236.4 175.4h-.4c-8.9-3-21.1-1.9-28.9 3.6 1-.7-9.1-12.4-9.8-13.1-8.1-7.9-19.3-12.3-30.7-10.6a17.5 17.5 0 0 0-9.7 4.5c-6.1 5.9-5.6 16.5-5.2 24.3a97.2 97.2 0 0 0 6 27.4c6.5 17.8 16.8 34 27.9 49.3l1 1.3a130 130 0 0 0 54.7-49.2c4-6.5 9.6-14 8.7-22.1s-7-13.1-13.6-15.4z"/><path fill="#29abe2" d="M211.9 132.1h-.1l-1.8.7c-2.5.8-24.9 6.5-24.9 7.7 11.5 3.5 21.2 9.3 26.3 20.9-.2-.4 11.8-3.6 13-3.8a32 32 0 0 1 15.5 1.3 31.6 31.6 0 0 1 16.8 13.7c-.4-.7 2.4-6.6 2.6-7.7a93.9 93.9 0 0 0 1.8-9.3 134.9 134.9 0 0 0 1.6-20.1A129.7 129.7 0 0 0 219.4 38a128.4 128.4 0 0 0-84.9-32C63.8 6 6.5 63.4 6.5 134.2a129.1 129.1 0 0 0 44.2 96.9 29.2 29.2 0 0 0 5.2 4.1c-.5-11-2.7-21.6-2.3-32.7a145.4 145.4 0 0 1 2.1-19.2c.9-5.3 4.5-12.7 3.2-18.1a9.9 9.9 0 0 0-4.4 4.8c1.1-2.4.5-7.5 1-10.3a112.1 112.1 0 0 1 2.7-11.8 194.3 194.3 0 0 1 8.1-22.5q3.7-8.8 8.1-17.4c1-2 3.4-4.9 3.8-7.2 1.3-8.2 0-18.1 0-26.6s-.7-17.7-.7-26.5c0-4.9 1.3-6.6 5.5-9.2.9 1.2 6.2 11.5 6.3 11.5s4.3-3.1 5.6-2.1a3.5 3.5 0 0 1 1 1.9c1 4 2 7.9 3.1 11.9.2.9 1.6 8.7 2.5 8.9l18 5.4c5.4 1.6 11 2.9 16.2 5.3s8.6 5.8 12.7 9.2l71.5 13.7c4.1.8 2.8 10.2 2.1 12.6-1.5 4.9-4.7 9.4-7.9 13.2a9.1 9.1 0 0 1-2.2 2.1z"/></symbol><symbol id="rescue-logo" viewBox="0 0 69.97 9.04"><path fill="#fff" d="M15.828 6.812l-.007.115v.064l-.021.085-.042.05-.05.021-.072.014h-.057l-.1.007-.794-.043h-.537l-.648.045-.415-.029h-.53l-.329.021h-.107l-.1-.007-.079-.015-.05-.028-.036-.043-.014-.086v-.114l.036-.272.007-.107-.029-.379V6l.014-.379V5.5l.015-.873v-.112l-.029-.874v-.114l-.007-.379v-.609l-.014-.214v-.107l.007-.064.021-.093.028-.043.053-.018.079-.014h.057l.107-.007.351.021h.115l.508-.007h.072l.05.028.036.05v.619l.014.415v.115l-.021.415v.114l.014.415v.115l.021.415v.114l-.043.945.007.072.007.036.014.036.036.029.086.014.244.014.214-.014h.115l1.03-.014.115-.007.243-.028.115-.007h.107l.086.021.05.043.021.05.007.079.007.4.007.115zM21.8 4.508l-.007.114-.015.165-.014.107-.043.215-.014.165-.015.107-.021.114-.028.107-.072.15-.05.1-.193.322-.064.093-.072.093-.071.079-.121.122-.079.072-.091.067-.086.064-.129.086-.093.057-.107.058-.1.043-.143.057-.107.028-.229.072-.122.036-.114.029-.122.029-.122.021-.122.007h-.386l-.248-.01-.236-.029-.1-.021-.104-.027-.387-.129-.114-.036-.122-.05-.229-.1-.108-.059-.107-.064L17 6.69l-.093-.079-.086-.093-.079-.093-.193-.193-.071-.086-.072-.093-.056-.093-.057-.143-.107-.322-.043-.15-.021-.107-.022-.115-.021-.107-.021-.157-.007-.107-.007-.122v-.122l.007-.122.007-.129.014-.122.021-.122.029-.122.036-.122.036-.107.043-.114.05-.165.05-.115.029-.064.057-.107.1-.158.071-.1.036-.057.086-.086.122-.1.093-.072.093-.064.215-.143.093-.057.1-.057.1-.05.15-.064.1-.036.107-.036.111-.029.272-.05.107-.021.357-.043.229-.014.215.014.172.007.122.014.122.021.122.029.122.021.11.034.107.029.107.036.15.058.1.043.236.136.093.064.093.072.122.114.079.072.079.079.064.086.1.136.057.093.05.093.057.093.079.143.058.093.05.107.036.1.036.165.043.214.014.122.021.122zm-1.5.122v-.122l-.007-.122-.007-.115-.043-.214-.028-.1-.087-.157-.057-.093-.1-.128L19.9 3.5l-.107-.114-.079-.064-.186-.107-.1-.043-.115-.036-.113-.024-.231-.012-.107.007-.157.007-.107.021-.186.05-.115.043-.165.086-.1.064-.114.1-.079.086-.079.107-.057.093-.021.043-.064.15-.036.107-.021.05-.021.1-.015.1-.007.1-.007.107v.107l.007.114.021.115.007.064.029.107.014.05.036.1.028.057.057.1.036.057.079.1.043.05.086.086.143.122.1.064.115.057.107.043.15.05.107.021.179.021.122.007.178-.013.115-.014.157-.036.1-.043.158-.1.085-.064.115-.114.072-.079.093-.115.064-.1.072-.157.042-.107.036-.165.014-.107zm6.663-2.57l-.043.064-.515.759-.072.093-.243.33-.064.093-.2.351-.064.1-.222.33-.071.1-.229.329-.072.093-.236.329-.028.057v.58l.028.387-.007.114-.029.387v.114l.029.3.007.1-.021.057-.028.029-.064.014h-.472l-.837-.029-.029-.021-.014-.071v-.88l-.007-.114-.028-.387-.007-.114.029-.387-.019-.067-.05-.05-.193-.344-.064-.1-.228-.321-.064-.1-.208-.343-.057-.1-.5-.759-.057-.1-.214-.336-.057-.1-.211-.347-.021-.064.006-.036.043-.028h.959l.115.007.415.021.079.007.029.021.208.358.057.093.215.322.057.093.186.329.064.1.193.308.05.064.043.014.05-.05.179-.343.064-.093.222-.315.064-.093.179-.336.057-.1.2-.329.057-.072.058-.014.079.007L25.8 2h.114l.415-.021h.115l.404.021.086.014.036.015zm4.53 4.881l.021.1-.05.079-.079.036-.093.014h-.1l-.165-.014-.107-.007h-.32l-.444.029-.093-.036-.043-.05-.036-.079-.222-.6-.05-.071-.064-.014-.086-.007-.43-.029h-.114l-.537-.014-.43-.007h-.107l-.107.007h-.329l-.093.014-.057.036-.043.085-.165.487-.043.115-.079.093-.107.036h-.115l-.415-.021h-.114l-.444.029-.093.007-.085-.043-.055-.083.007-.093.014-.057.043-.115.1-.222.036-.106.179-.4.043-.1.186-.4.043-.107.165-.387.043-.107.193-.4.043-.1.258-.587.2-.429.05-.114.157-.322.05-.114.136-.33.043-.107.129-.293.036-.079.072-.043.11-.021.329-.014h.558l.329.007.122.021.079.057.036.093.1.279.043.107.179.336.043.1.157.351.043.1.129.365.043.1.157.344.043.1.158.351.042.1.144.358.043.1.222.444.172.336.05.1.193.451zM29.1 4.923l-.029-.093-.157-.486-.036-.107-.144-.422-.034-.095-.071-.05-.093-.021-.079.021-.072.072-.193.486-.043.107-.186.479-.021.107.021.086.079.036.1.014h.451l.336.021.093-.028.057-.058zm6.916 1.889l-.007.115v.064l-.021.085-.042.05-.05.021-.072.014h-.057l-.1.007-.794-.043h-.537l-.644.043-.415-.029h-.53l-.329.021h-.107l-.1-.007-.079-.015-.05-.028-.036-.043-.014-.086v-.112l.036-.272.007-.107-.028-.379V6l.014-.379V5.5l.014-.873v-.112l-.028-.874v-.114l-.007-.379v-.609l-.014-.214v-.107l.007-.064.021-.093.028-.043L32.13 2l.079-.014h.057l.107-.007.351.021h.115l.508-.007h.072l.05.028.036.05v.619l.014.415v.115l-.021.415v.114l.014.415v.115l.021.415v.114l-.043.945.007.072.007.036.014.036.036.029.086.014.244.014.214-.014h.115l1.03-.014.115-.007.243-.028.115-.007h.107l.086.021.05.043.021.052.007.079.007.4.006.111zm8.402.307l-.094.029h-.5l-.394-.007h-.114l-.322.015H42.9l-.064-.029-.058-.057-.229-.322-.064-.086-.229-.308-.064-.086-.2-.329-.064-.086-.228-.308-.05-.057-.043-.021-.086-.007-.229-.014-.093.007-.058.043-.021.093-.014.394.007.115.028.4.008.115.007.172V6.9l-.007.115-.015.085-.036.036-.078.021h-.12l-.344-.021-.329.021h-.115l-.329-.021-.083-.017-.043-.028-.014-.072-.008-.1-.007-.107.015-.186.007-.114.028-.387V6.01l-.021-.387-.007-.114-.007-.379v-.115l.021-.386v-.114l-.021-.387v-.114l.021-.387v-.114l.014-.379v-.115l-.007-.386v-.115l-.015-.236.008-.107.007-.043.021-.093.043-.057.086-.021.058-.007.107-.007.321.014.852.029.487-.029h.114l.473.029h.271l.125.01.107.021.149.043.107.036.107.043.115.043.106.05.094.057.136.093.079.064.071.071.071.086.1.143.064.093.086.136.05.1.05.107.036.115.021.114.007.115.015.157V3.8l-.008.114-.014.122-.021.122-.028.114-.043.107-.051.107-.064.107-.064.093-.064.086-.064.079-.114.115-.078.064-.144.079-.086.05-.093.05-.093.021-.058.021.028.057.258.365.064.086.258.351.079.09.258.358.071.085.222.258.064.079.036.079zm-2.169-2.755l.157-.029.094-.035.086-.05.071-.086.05-.107.029-.115.007-.115-.007-.122-.015-.122-.028-.107-.051-.107-.064-.085-.078-.065-.1-.043-.157-.036-.114-.015-.358-.007h-.114l-.365.021-.086.007-.05.021-.043.043-.007.079.007.165.015.115.014.122.008.122-.015.394.007.079.015.043.05.021.086.015.372.028h.115zm6.877 2.111l-.007.115-.028.386-.008.072-.028.05-.036.029-.937.029h-.115l-.379-.029-.114.007-.372.028-.115.007h-.493l-.372-.029h-.115l-.615.036-.243-.015-.086-.014-.05-.036-.021-.05-.015-.079-.015-.165-.008-.117.007-.107V6.49l.029-.379V6l.01-.383-.009-.117-.021-.379-.008-.114.015-.387v-.606l.023-.38V3.52l-.021-.379-.007-.115v-.172l.014-.214v-.108L45 2.16l.008-.1.026-.06.035-.028.058-.007.093-.014.466.028.437-.007h.114l.43.028h.114l.429-.028h.115l.973.014.122-.007.243-.021h.179l.1.021.043.036.015.05.014.093v.193L49 2.532v.122l.007.179.007.107-.007.107-.015.086-.028.05-.036.029-.086.014h-.057l-.115.007-.67-.014h-.115l-.364.014H47.4l-.372-.014-.32-.019H46.6l-.058.007-.071.015-.036.036-.007.043-.015.079-.015.172v.114l.008.122.007.079.015.05.028.036.079.021.229.014.229-.014h.68l.8-.043.222.014.078.014.043.036.021.043.008.079.014.122.008.122v.236l.014.165-.014.215-.015.085-.028.05-.051.036-.071.015h-.143l-.322-.036-.115-.007-.572.036-.458-.014h-.112l-.286-.021-.122.007-.086.007-.035.021-.021.05-.008.107-.021.179-.007.114v.154l.007.071.021.05.029.028.078.007.394.014h.115l.386-.028.509.028h.114l.508-.028h.107l.107.007.258.029.043.021.03.041.007.079zm5.017-.93l-.008.122-.014.122-.021.111-.036.157-.036.1-.064.144-.05.093-.086.129-.071.086-.087.091-.086.079-.144.093-.093.064-.107.058-.1.05-.165.057-.215.072-.114.021-.179.029-.107.014-.157.014-.1.007-.164.007-.344.021h-.157l-.1-.007-.165-.014-.106-.015-.122-.021-.107-.036-.157-.05-.1-.05-.107-.05-.1-.05-.094-.058-.229-.157-.088-.078-.129-.1-.086-.071-.078-.079-.058-.064-.007-.05.035-.064.029-.036.071-.079.2-.186.064-.079.122-.186.064-.079.071-.079.078-.043.079.014.079.057.229.158.107.057.1.05.164.079.107.036.119.044.115.021.164.007.114.007.451-.035.114-.014.058-.015.107-.043.093-.057.071-.071.036-.05.043-.107-.007-.122-.015-.057-.058-.1-.035-.043-.093-.072-.058-.021-.107-.043-.116-.026-.121-.021-.68-.064-.219-.044-.114-.03-.158-.057-.108-.035-.107-.05-.243-.122-.093-.064-.107-.064-.093-.064-.122-.1-.065-.094-.064-.107-.043-.107-.05-.15-.021-.107-.022-.159-.015-.229.008-.115.014-.172.023-.104.027-.1.035-.107.072-.157.05-.1.058-.086.071-.079.114-.107.093-.072.094-.064.1-.05.137-.079.214-.086.107-.036.165-.028.114-.021.215-.029.157-.029.114-.014.107-.007h.115l.214.021.107.015.051.014.114.014.243.043.122.029.114.036.121.036.115.043.107.05.107.043.136.079.1.05.094.064.064.064v.072l-.043.079-.079.143-.058.086-.271.358-.079.1-.086.072-.057.021-.051-.007-.071-.036-.107-.064-.107-.043-.05-.021-.109-.034-.058-.015-.121-.028-.161-.033-.114-.007-.186-.014h-.187l-.122.007-.121.021-.114.036-.043.021-.086.064-.036.043-.05.1-.015.115.021.093.058.093.078.072.086.043.051.021.106.021.18.021.243.015.121.021.244.057.229.072.165.036.107.028.2.072.143.064.1.05.1.057.094.057.207.172.079.086.071.086.086.128.058.093.05.107.028.107.029.157.014.107zm5.224.955l-.058.058-.128.114-.086.064-.137.1-.086.057-.143.079-.093.05-.165.079-.107.036-.121.036-.122.021-.179.036-.251.029-.129.007-.179.014h-.372l-.121-.007-.122-.014-.122-.021-.121-.029-.107-.036-.318-.089-.157-.057-.093-.043-.137-.079-.086-.064-.093-.064-.1-.064-.187-.157-.086-.086-.078-.093L55 6.268l-.064-.1-.058-.1-.05-.1-.071-.15-.107-.3-.05-.143-.072-.214-.014-.107-.008-.165.008-.107.007-.115v-.124l.015-.243.007-.115.021-.107.028-.157.029-.107.035-.107.036-.1.05-.143.05-.1.051-.107.057-.107.064-.107.064-.1.072-.093.078-.1.086-.093.086-.079.093-.079.086-.071.229-.158.093-.057.1-.057.214-.1.122-.043.114-.036.243-.058.122-.021.122-.014.222-.014.157-.015.107.007.157.007.269.031.1.021.164.029.251.071.1.043.158.093.1.057.187.129.222.157.079.057.039.043.05.05.014.057-.007.058-.043.057-.064.079-.078.079-.079.072-.079.064-.078.079-.122.143-.078.086-.036.036-.064.058-.05.021-.051.007-.05-.014-.078-.043-.137-.1-.093-.05-.157-.071-.1-.036-.157-.043-.107-.021-.179-.014h-.114l-.158.014-.114.029-.157.05-.107.043-.093.036-.144.071-.1.072-.051.043-.086.093-.064.1-.05.093-.05.1-.043.102-.036.115-.021.122-.014.107-.015.214v.115l.007.179.008.107.035.165.036.107.05.122.058.107.107.158.078.085.137.115.093.064.143.071.107.047.157.043.115.021.172.007h.164l.1-.021.057-.014.108-.036.179-.064.115-.05.107-.05.093-.05.136-.086.093-.072.072-.05.043-.015.064.015.078.05.079.072.028.043.071.079.115.143.071.086.193.222.064.086.035.036.036.064zm5.289-1.871l.015.229-.008.107-.007.165-.015.107-.028.172-.021.114-.028.165-.029.107-.057.15-.036.1-.064.15-.05.1-.093.143-.072.093-.086.093-.093.079-.143.115-.094.064-.143.086-.094.05-.149.072-.107.036-.158.057-.107.029-.164.029-.107.021-.222.014h-.329L62 7.263l-.107-.007-.393-.043-.114-.021-.064-.007-.114-.036-.058-.021-.114-.05-.157-.071-.107-.064-.107-.072-.187-.157-.078-.081-.1-.122-.064-.086-.114-.186-.064-.1L60 6.032l-.051-.115-.039-.107-.028-.1-.028-.11-.029-.157-.025-.12-.011-.123-.015-.243-.007-.114.021-.437v-.113l-.015-.437v-.114l.021-.437V2.64l-.014-.229v-.122l.007-.122.021-.114.05-.064.093-.021.236-.014.272.021h.114l.236-.007.107.007.164.007.097.018.058.057.021.093.007.1v.107l-.014.279v.114l.021.437v.115l-.008.437v.114l-.021.437v.115l-.007.437.007.114.015.179.021.114.043.158.043.107.071.165.072.086.114.122.093.057.158.056.107.029.187.014h.114l.187-.036.106-.029.137-.064.091-.054.114-.1.071-.086.079-.15.05-.107.036-.114.021-.115.028-.214.008-.115-.029-.437v-.115l.021-.443v-.115l.015-.437V3.2l-.014-.446V2.64l-.021-.3v-.18l.028-.1.06-.06.094-.021h.149l.365.029h.114l.287-.021h.114L64.5 2l.093.021.058.05.007.086.007.215v.107l-.007.165v.114l.021.444v.114l-.015.437v.115l-.028.443zm4.929 1.846l-.007.115-.028.386-.008.072-.028.05-.036.029-.937.029h-.115l-.379-.029-.114.007-.372.028-.115.007h-.493l-.372-.029h-.115l-.615.036-.243-.015-.086-.014-.05-.036-.021-.05-.015-.079-.015-.165-.008-.117.007-.1v-.11l.029-.379V6l.007-.379-.006-.121-.021-.379-.008-.114.015-.387v-.606l.028-.379-.007-.115-.021-.379-.007-.115v-.172l.014-.214v-.108l.021-.372.008-.1.021-.06.035-.028.058-.007.093-.014.466.028.437-.007h.114l.43.028h.114l.429-.028h.115l.973.014.122-.007.243-.021h.178l.1.021.043.036.015.05.014.093v.193l-.014.179v.122l.007.179.007.107-.007.107-.015.086-.028.05-.036.029-.086.014h-.057l-.115.007-.672-.014h-.116l-.364.014h-.115l-.372-.014-.322-.017H67l-.071.015-.036.036-.007.043-.015.079-.015.172v.114l.008.122.007.079.015.05.028.036.086.025.229.014.229-.014h.68l.8-.043.222.014.078.014.043.036.021.043.008.079.014.122.008.122v.236l.014.165-.014.215-.015.085-.028.05-.051.036-.071.015h-.143l-.324-.037-.115-.007-.572.036-.458-.014h-.114l-.286-.021-.122.007-.086.007-.035.021-.021.05-.008.107-.021.179-.007.114v.158l.007.071.021.05.029.028.078.007.394.014h.116l.386-.028.509.028h.114l.508-.028h.107l.107.007.258.029.043.021.025.041.007.079zM7.684 5.863h-.011a1.129 1.129 0 0 0-.939.119c.032-.023-.3-.4-.318-.425a1.187 1.187 0 0 0-1-.343.57.57 0 0 0-.315.145 1.026 1.026 0 0 0-.168.79 3.152 3.152 0 0 0 .2.889 6.686 6.686 0 0 0 .908 1.6l.031.043a4.225 4.225 0 0 0 1.778-1.6 1.211 1.211 0 0 0 .282-.718.649.649 0 0 0-.448-.5z"/><path fill="#fff" d="M6.887 4.457a.309.309 0 0 1-.06.023 6.9 6.9 0 0 0-.811.249 1.245 1.245 0 0 1 .854.677 3.206 3.206 0 0 1 .422-.123 1.043 1.043 0 0 1 .5.043 1.026 1.026 0 0 1 .547.446 1.368 1.368 0 0 1 .086-.249 3.043 3.043 0 0 0 .058-.3 4.372 4.372 0 0 0 .051-.653A4.165 4.165 0 0 0 4.37.362 4.162 4.162 0 0 0 1.643 7.67a.95.95 0 0 0 .17.134c-.018-.357-.089-.7-.074-1.062a4.714 4.714 0 0 1 .067-.625 1.736 1.736 0 0 0 .106-.588.322.322 0 0 0-.142.157 1.65 1.65 0 0 0 .03-.336 3.636 3.636 0 0 1 .089-.383 6.3 6.3 0 0 1 .262-.73q.121-.287.262-.565a1.033 1.033 0 0 0 .123-.232 5.785 5.785 0 0 0 0-.863c0-.287-.023-.575-.022-.861a.288.288 0 0 1 .179-.3c.028.038.2.375.206.372.037-.018.141-.1.184-.067a.112.112 0 0 1 .031.062c.034.129.065.258.1.386a1.224 1.224 0 0 0 .08.29l.585.176a3.8 3.8 0 0 1 .526.174 2.086 2.086 0 0 1 .414.3l2.326.444c.133.025.092.333.068.41a1.3 1.3 0 0 1-.257.429.3.3 0 0 1-.069.065z"/></symbol></svg>