<svg id="Layer_1" data-name="Layer 1" xmlns="http://www.w3.org/2000/svg" width="0.965in" height="0.086in" viewBox="0 0 69.486 6.183"><title>logo</title><path d="M12.877,5.473l-.008.12v.068l-.022.09L12.8,5.8l-.053.022-.075.015h-.06l-.105.007L11.676,5.8h-.563l-.675.045L10,5.819H9.446L9.1,5.841H8.988l-.1-.008L8.8,5.819l-.053-.03L8.71,5.744,8.7,5.653v-.12l.038-.285.007-.112-.03-.4v-.12l.015-.4V4.1l.015-.916v-.12l-.03-.916v-.12l-.007-.4V.991L8.688.766V.654L8.7.586l.022-.1.03-.045L8.8.421,8.883.406h.06L9.056.4l.368.022h.12l.533-.007h.075l.053.03L10.242.5v.653l.015.436V1.7l-.022.436v.12l.015.436v.12l.022.435v.12l-.045.991.008.075.007.037.015.038.038.03.09.015.255.015.225-.015h.12l1.081-.015.12-.007.255-.03.12-.007h.112l.09.022.053.045.022.053.007.083.008.42.007.12Z" fill="#0071bc"/><path d="M19.135,3.056l-.007.12-.015.172-.015.113-.045.225-.015.173-.015.112L19,4.092l-.03.113-.075.158-.052.1-.2.338-.068.1L18.5,5l-.075.083-.12.127-.083.075-.1.075-.09.067-.135.09-.1.06-.113.06-.1.045-.15.06-.112.03-.24.075-.128.038-.12.03-.127.03-.128.022-.127.008h-.405l-.255-.015-.248-.03-.105-.022-.112-.03-.405-.135-.12-.038-.128-.053-.24-.1-.112-.06L14.2,5.421l-.1-.075-.1-.083-.09-.1-.083-.1-.2-.2-.075-.09-.075-.1-.06-.1-.06-.15-.113-.338L13.2,3.935l-.022-.113-.022-.12-.022-.113-.022-.165-.008-.113L13.1,3.184V3.056l.007-.128.008-.135.015-.127.022-.127.03-.128.038-.127.038-.113.045-.12.053-.172.052-.12.03-.068.06-.112.1-.165.075-.105.038-.06.09-.09.127-.1.1-.075.1-.068.225-.15.1-.06.105-.06.1-.053.158-.067.1-.038.113-.038.112-.03.285-.053.113-.022.375-.045.24-.015.225.015.18.007L16.7.316l.128.022.127.03.128.022.12.03.112.03.113.037.158.06.1.045.248.143.1.067.1.075.127.12.083.075.083.083.067.09.1.143.06.1.053.1.06.1.083.15.06.1.053.113.038.1.037.173.045.225.015.127.023.128Zm-1.576.127V3.056l-.008-.128-.007-.12L17.5,2.583l-.03-.1-.083-.166-.06-.1-.1-.135L17.146,2l-.113-.12-.083-.068-.2-.112-.1-.045-.12-.038-.12-.023-.24-.015-.113.007-.165.007-.112.023-.2.052-.12.045-.173.09-.1.067-.12.105-.083.09-.083.113-.06.1-.022.045-.068.158-.038.112-.022.053-.022.1-.015.105-.007.1-.007.112v.113l.007.12.022.12.008.067.03.113.015.053.038.1.03.06.06.1.038.06.083.1.045.053.09.09.15.128.105.067.12.06.112.045.158.052.113.022.187.022.127.008.188-.015.12-.015.165-.038.1-.045.166-.1.09-.068.12-.12.075-.083.1-.12.067-.1.075-.165.045-.113.038-.172.015-.113Z" fill="#0071bc"/><path d="M24.552.488l-.045.068-.541.8-.075.1-.255.346-.067.1-.21.368-.068.1-.233.345-.075.105-.24.345-.075.1L22.42,3.6l-.03.06v.608l.03.406-.008.12-.03.405v.12l.03.315.008.1L22.4,5.8l-.03.03-.067.015h-.5l-.878-.03L20.9,5.8l-.015-.075V4.8l-.008-.12-.03-.406-.007-.12.03-.405-.015-.067L20.8,3.627l-.2-.36-.068-.1-.24-.338-.067-.1L20,2.358l-.06-.1-.525-.8-.06-.105L19.132,1l-.06-.1-.218-.36L18.831.466l.008-.038L18.884.4H19.89l.12.007.436.022.083.008.03.022.217.375.061.1.225.337.06.1.2.345.067.105.2.323.053.067.045.015.052-.053.188-.36.067-.1.233-.33.067-.1L22.48.932l.06-.105.21-.345.06-.075.06-.015L22.953.4l.375.022h.12L23.884.4H24l.428.03.09.015.038.015Z" fill="#0071bc"/><path d="M29.3,5.608l.022.1-.053.083-.083.038-.1.015h-.1l-.173-.015L28.7,5.826h-.338l-.465.03-.1-.038-.045-.053-.038-.083-.233-.631-.053-.075-.067-.015-.09-.008-.451-.03H26.7l-.563-.015L25.69,4.9h-.112l-.113.007H25.12l-.1.015-.06.038-.045.09-.173.511-.045.12-.083.1-.113.038h-.12L23.949,5.8h-.12l-.465.03-.1.007-.09-.045-.06-.083.007-.1.015-.06.045-.12.1-.233.045-.112.188-.42.045-.1.2-.42.045-.113.173-.405.045-.113.2-.42.045-.1.27-.616.21-.45L24.8,1.8l.165-.338.053-.12.143-.346L25.21.879l.135-.308.038-.083.075-.045L25.57.421l.346-.015H26.5l.345.008.127.022.083.06.037.1L27.2.886,27.244,1l.188.353.045.105.165.368.045.1.135.383.045.105.165.36.045.1.165.368.045.105.15.375.045.105.233.465.18.353.053.1.2.473ZM26.794,3.491l-.03-.1-.165-.51-.038-.113-.15-.443-.038-.1L26.3,2.178l-.1-.022-.083.022-.075.075-.2.51-.045.113-.2.5-.022.112.022.09.083.038.1.015h.473l.353.023.1-.03.06-.06Z" fill="#0071bc"/><path d="M34.043,5.473l-.008.12v.068l-.022.09-.045.053-.053.022-.075.015H33.78l-.1.007L32.842,5.8h-.563l-.676.045-.436-.03h-.556l-.345.022h-.113l-.1-.008-.083-.015-.053-.03-.037-.045-.015-.09v-.12l.038-.285.007-.112-.03-.4v-.12l.015-.4V4.1l.015-.916v-.12l-.03-.916v-.12l-.008-.4V.991L29.853.766V.654l.008-.068.022-.1.03-.045.053-.022.083-.015h.06L30.222.4l.368.022h.12l.533-.007h.075l.052.03L31.408.5v.653l.015.436V1.7L31.4,2.14v.12l.015.436v.12l.023.435v.12l-.045.991.008.075.007.037.015.038.038.03.09.015.255.015.225-.015h.12l1.081-.015.12-.007.255-.03.12-.007h.113l.09.022.053.045.022.053.007.083.007.42.008.12Z" fill="#0071bc"/><path d="M42.851,5.8l-.1.03h-.525l-.412-.007H41.7l-.338.015h-.1l-.067-.03-.061-.06-.24-.338-.067-.09-.24-.323-.067-.09-.211-.345-.067-.09L40,4.145l-.053-.06L39.9,4.062l-.09-.007-.24-.015-.1.007-.06.045-.023.1-.015.413.008.12.03.42.007.12.008.18v.12l-.008.12-.015.09-.038.038-.082.022h-.12l-.36-.022-.346.022h-.12l-.345-.022L37.9,5.8l-.045-.03-.015-.075-.008-.1-.007-.113.015-.195.008-.12.029-.406v-.12l-.022-.405-.007-.12-.008-.4v-.12l.022-.405v-.12l-.022-.405v-.12l.022-.405v-.12l.015-.4v-.12l-.007-.406V.969L37.859.721l.008-.113.008-.045.022-.1.045-.06.09-.022.061-.007L38.2.368l.338.015.894.03.51-.03h.12l.5.03h.285l.128.007.112.022.157.045.113.038.112.045.12.045L41.7.669l.1.06.143.1.083.068L42.1.969l.075.09.1.15.067.1.091.143.052.105.053.112.038.12.022.12.007.12.016.165v.12l-.008.12-.015.128-.022.127-.03.12-.045.113-.053.112-.067.113-.067.1-.068.09-.067.083-.12.12-.082.067-.15.083-.09.053-.1.052-.1.023-.061.022.03.06.271.383.067.09.271.368.075.09.27.375.075.09.233.271.067.083.037.083Zm-2.274-2.89.165-.03.1-.038.09-.053L41,2.7l.053-.113.03-.12.008-.12-.008-.127-.016-.128-.029-.112-.053-.113-.067-.09L40.839,1.7l-.1-.045-.166-.038-.12-.015L40.074,1.6h-.12l-.383.022-.09.007-.053.023-.045.045-.008.083.008.172.015.12.016.128.007.127-.015.413.008.083.015.045.053.022.09.015.391.03h.12Z" fill="#0071bc"/><path d="M47.787,5.121l-.007.12-.03.405-.008.075-.03.052-.037.03-.983.03h-.12l-.4-.03-.119.007-.391.03-.12.007h-.519l-.39-.03h-.12l-.646.038-.255-.015-.09-.015-.053-.038-.022-.052-.015-.083-.016-.172-.007-.12.007-.113V5.136l.03-.4v-.12l.008-.4-.008-.12-.022-.4-.008-.12.016-.405V2.538l.029-.4-.007-.12-.022-.4-.008-.12v-.18l.015-.225V.984l.022-.39.008-.105.022-.06L43.531.4l.061-.008.1-.015.488.03L44.635.4h.12l.45.03h.12l.45-.03h.12l1.021.015.127-.008L47.3.383h.188l.1.022.046.038L47.653.5l.015.1V.8l-.015.188v.127l.008.188.007.113-.007.112-.016.09-.03.052-.037.03-.09.015h-.061l-.12.008L46.6,1.7h-.12L46.1,1.72h-.12L45.588,1.7l-.338-.022h-.112l-.061.007L45,1.7l-.037.038-.008.045-.015.083-.016.18v.12l.008.128.008.083.015.052.03.038.082.023.24.015.24-.015h.714l.841-.045.232.015.083.015.045.038.022.045.008.083.015.127.008.128v.248l.015.173-.015.225-.016.09-.03.053-.052.038-.075.015h-.15L46.857,3.7l-.12-.007-.6.037-.48-.015h-.12l-.3-.022-.128.007-.09.007-.038.022-.022.053L44.95,3.9l-.022.188-.007.12V4.37l.007.075.022.053.03.03.083.008.413.015h.12L46,4.52l.533.03h.119l.533-.03H47.3l.112.007.271.03.045.022.03.045.007.083Z" fill="#0071bc"/><path d="M53.047,4.145l-.007.127-.016.128L53,4.52l-.037.165-.038.1-.067.15-.053.1-.09.135-.075.09-.09.09-.09.083-.15.1-.1.068-.112.06L52,5.713l-.173.06-.225.075-.12.022-.187.03-.113.015-.165.015-.105.008-.172.007-.36.022H50.21L50.1,5.962l-.173-.015-.112-.015-.128-.022-.112-.038-.165-.052-.105-.053L49.2,5.713l-.105-.052-.1-.06-.24-.166-.09-.075-.135-.1-.091-.075L48.356,5.1,48.3,5.03l-.007-.052.037-.068.03-.038.075-.083.21-.2.067-.083.128-.195.067-.083.075-.083.082-.045.083.015.082.06.24.165.113.06.1.053.173.083.113.038.12.038.12.022.172.007.12.008.474-.03.12-.015.06-.015.113-.045.1-.06.075-.075.038-.053.045-.113-.008-.127-.015-.06-.061-.1L51.4,3.912l-.1-.075-.061-.022-.112-.045-.128-.03-.127-.022-.714-.068L49.94,3.6l-.12-.03-.165-.061-.113-.037-.112-.053L49.174,3.3l-.1-.068-.113-.067-.1-.067-.128-.105-.067-.1L48.6,2.778l-.045-.113-.053-.158L48.483,2.4,48.46,2.23l-.015-.24.008-.12.015-.18.022-.112.03-.1.037-.113.075-.165.053-.1.06-.09.075-.083.12-.112.1-.075.1-.068.105-.052.143-.083.226-.09.112-.038.173-.03.12-.022.225-.03L50.4.294l.12-.015.113-.008h.12l.225.023L51.1.308l.052.015.121.015.255.045.128.03.12.038L51.9.488l.12.045.113.052.112.045.143.083.105.052.1.068L52.658.9V.977l-.045.083-.083.15-.06.09-.286.375-.082.1-.09.075-.061.022L51.9,1.87l-.075-.038-.112-.067L51.6,1.72,51.546,1.7l-.112-.038-.061-.015-.128-.03-.172-.038-.12-.008-.2-.015h-.2l-.128.007-.127.022-.121.038-.045.022-.09.067-.037.045-.053.1-.016.12.023.1.06.1.083.075.09.045.053.022.112.022.188.022.256.015.127.022.256.06.24.075.172.038.113.03.21.075.15.067.1.053.105.06.1.06.218.18.082.09.075.09.091.135.06.1.053.113.03.113.029.165.016.113Z" fill="#0071bc"/><path d="M58.525,5.143l-.061.06-.135.12-.09.067L58.1,5.5l-.091.06-.149.083-.1.052-.173.083-.113.038-.127.038-.128.022-.187.038-.263.03-.136.007-.187.015h-.391l-.127-.008L55.8,5.939l-.128-.023-.127-.03-.113-.038-.338-.09-.165-.06-.1-.045-.143-.083L54.6,5.5l-.1-.068-.1-.067L54.2,5.2l-.091-.09-.082-.1L53.945,4.9l-.067-.1-.06-.105-.053-.1L53.69,4.43l-.112-.315-.053-.15-.075-.225-.015-.113-.008-.172.008-.113.007-.12V3.094l.016-.255.007-.12.022-.113.03-.165.03-.113.037-.112.038-.105.053-.15.052-.1.053-.113.061-.113.067-.112.067-.1.075-.1.082-.105.091-.1.09-.083.1-.083L54.5.871l.24-.165.1-.06.105-.06.225-.1L55.3.436,55.416.4l.255-.06L55.8.316,55.927.3l.232-.015.165-.015.113.008L56.6.286l.277.038.105.022.173.03.263.075.1.045.165.1.105.06.2.135.232.166.083.06.045.038L58.4,1.1l.015.06-.008.06-.045.06-.067.083-.083.083-.082.075-.083.067-.082.083-.128.15-.082.09-.038.037-.067.061-.053.022-.053.007L57.5,2.027l-.082-.045-.143-.1-.1-.053-.165-.075L56.9,1.712l-.165-.045-.112-.022-.187-.015h-.12l-.166.015-.12.03-.165.052-.112.045-.1.037-.15.075-.1.075L55.349,2l-.09.1-.068.1-.052.1-.053.1-.045.113L55,2.643l-.022.127-.015.113-.016.225v.12l.008.188.008.112L55,3.7l.038.113.052.127.061.113.112.165.083.09.143.12.1.068.15.075.112.045.165.045.12.022.181.007h.172L56.6,4.67l.061-.015.112-.038.188-.068.12-.052.112-.053.1-.053.143-.09.1-.075.075-.052.045-.015.067.015.083.052.083.075.029.045.075.083.12.15.075.09.2.233.067.09.037.038.038.068Z" fill="#0071bc"/><path d="M64.069,3.184l.016.24-.008.113-.008.172-.015.113-.03.18L64,4.122l-.03.173-.03.112-.06.158-.037.1-.068.158-.052.1-.1.15-.075.1-.091.1-.1.083-.15.12-.1.067-.15.09-.1.052-.157.075L62.6,5.8l-.165.06-.112.03-.173.03-.112.022-.232.015h-.346l-.173-.015-.112-.007-.413-.045-.12-.022-.067-.007-.12-.038L60.39,5.8l-.12-.053L60.1,5.676l-.112-.067-.112-.075-.2-.165L59.6,5.286l-.1-.127-.067-.09-.12-.2-.067-.1-.061-.112-.053-.12-.045-.113-.029-.1-.03-.113L59,4.04l-.022-.128-.015-.127-.016-.255-.007-.12.022-.458v-.12l-.016-.458v-.12l.022-.458V1.1l-.015-.24V.729L58.964.6l.022-.12.053-.067.1-.023.248-.015L59.669.4h.12l.248-.008L60.15.4l.173.007.1.022.061.06.022.1.007.105V.8L60.5,1.1v.12l.022.458V1.8l-.008.458v.12l-.022.458v.12l-.007.458.007.12.016.188.022.12L60.571,4l.045.112.075.173.075.09.12.127.1.06.165.06.112.03.2.015h.12l.2-.038.112-.03.143-.067.1-.061.12-.1.075-.09.083-.158.052-.113.038-.12.022-.12.03-.225.007-.12-.029-.458v-.12l.022-.465V2.26L62.56,1.8v-.12l-.015-.465-.008-.12L62.515.781V.594l.03-.105.067-.06.1-.022h.157l.383.03h.12l.3-.022h.12L63.9.421l.1.022L64.062.5l.007.09.008.226V.924l-.008.173v.12l.022.465V1.8l-.015.458v.12l-.03.465Z" fill="#0071bc"/><path d="M69.238,5.121l-.007.12-.03.405-.008.075-.03.052-.037.03-.983.03h-.12l-.4-.03-.121.007-.39.03-.12.007h-.519l-.39-.03h-.12l-.646.038-.255-.015-.09-.015-.053-.038L64.9,5.736l-.015-.083-.016-.172-.008-.12.008-.113V5.136l.03-.4v-.12l.008-.4L64.9,4.1l-.022-.4-.008-.12.016-.405V2.538l.029-.4-.007-.12-.022-.4-.008-.12v-.18l.015-.225V.984l.022-.39.008-.105.022-.06L64.982.4l.06-.008.1-.015.488.03L66.085.4h.12l.45.03h.12l.45-.03h.12l1.021.015.127-.008L68.75.383h.188l.1.022.046.038L69.1.5l.015.1V.8L69.1.984v.127l.008.188.007.113-.007.112-.016.09-.029.052-.038.03-.09.015h-.061l-.12.008L68.052,1.7h-.12l-.383.015h-.12L67.038,1.7,66.7,1.682h-.112l-.061.007-.075.015-.037.038-.008.045-.015.083-.016.18v.12l.008.128.008.083.015.052.03.038.082.023.24.015L67,2.493h.714l.841-.045.232.015.083.015.045.038.022.045.007.083.016.127.008.128v.248l.015.173-.015.225-.016.09-.03.053-.052.038-.075.015h-.15L68.307,3.7l-.12-.007-.6.037-.48-.015h-.12l-.3-.022-.128.007-.09.007-.038.022-.022.053L66.4,3.9l-.022.188-.007.12V4.37l.007.075L66.4,4.5l.03.03.083.008.413.015h.12l.405-.03.532.03H68.1l.532-.03h.113l.112.007.271.03.045.022.03.045.007.083Z" fill="#0071bc"/><path d="M5.125,4.15l-.007,0a.749.749,0,0,0-.623.079c.021-.015-.2-.267-.211-.282a.788.788,0,0,0-.662-.228.378.378,0,0,0-.209.1.681.681,0,0,0-.111.524,2.092,2.092,0,0,0,.13.59,4.437,4.437,0,0,0,.6,1.061l.021.028a2.8,2.8,0,0,0,1.18-1.059A.8.8,0,0,0,5.42,4.48.431.431,0,0,0,5.125,4.15Z" fill="#0071bc"/><path d="M4.6,3.217l0,0a.2.2,0,0,1-.04.015,4.58,4.58,0,0,0-.538.165.826.826,0,0,1,.567.449,2.128,2.128,0,0,1,.28-.082A.692.692,0,0,1,5.2,3.8a.681.681,0,0,1,.363.3.908.908,0,0,1,.057-.165,2.019,2.019,0,0,0,.039-.2,2.9,2.9,0,0,0,.034-.433A2.764,2.764,0,0,0,2.926.5a2.762,2.762,0,0,0-1.809,4.85.63.63,0,0,0,.113.089c-.012-.237-.059-.465-.049-.705a3.128,3.128,0,0,1,.045-.415,1.152,1.152,0,0,0,.07-.39.214.214,0,0,0-.094.1,1.1,1.1,0,0,0,.021-.222,2.413,2.413,0,0,1,.059-.254,4.182,4.182,0,0,1,.174-.484q.08-.19.174-.375a.685.685,0,0,0,.081-.154,3.839,3.839,0,0,0,0-.573c0-.19-.015-.381-.015-.571a.191.191,0,0,1,.119-.2c.019.025.134.249.137.247.024-.012.094-.067.122-.044a.074.074,0,0,1,.021.041c.023.086.043.171.067.256a.812.812,0,0,0,.053.192l.388.117a2.522,2.522,0,0,1,.349.115,1.384,1.384,0,0,1,.275.2l1.544.295c.088.017.061.221.045.272a.865.865,0,0,1-.171.285A.2.2,0,0,1,4.6,3.217Z" fill="#0071bc"/></svg>